<?xml version="1.0" standalone="no"?><!DOCTYPE svg PUBLIC "-//W3C//DTD SVG 1.1//EN" "http://www.w3.org/Graphics/SVG/1.1/DTD/svg11.dtd"><svg t="1642575811379" class="icon" viewBox="0 0 1024 1024" version="1.1" xmlns="http://www.w3.org/2000/svg" p-id="2582" xmlns:xlink="http://www.w3.org/1999/xlink" width="200" height="200"><defs><style type="text/css"></style></defs><path d="M148.859259 743.727407c-11.757037 0-21.333333-9.576296-21.333333-21.333333v-93.108148c0-23.703704 13.368889-46.743704 39.727407-68.456296 18.394074-15.17037 43.614815-30.151111 74.998519-44.468149 10.619259-4.93037 21.238519-9.386667 31.478518-13.463703-13.463704-7.205926-22.85037-16.592593-29.108148-25.125926-17.445926-23.514074-19.342222-49.493333-19.342222-59.638519v-77.558518c0-37.451852 12.98963-68.551111 37.451852-89.884445 22.660741-19.721481 54.044444-30.151111 90.737778-30.151111 11.757037 0 21.333333 9.576296 21.333333 21.333334s-9.576296 21.333333-21.333333 21.333333c-25.694815 0-85.522963 7.585185-85.522963 77.463704v77.558518c0 8.912593 2.74963 53.285926 57.078518 54.234074 0.853333 0 1.706667 0.094815 2.56 0.18963 19.626667 2.654815 29.487407 4.551111 29.866667 4.551111 9.765926 1.801481 16.971852 10.145185 17.351111 20.100741 0.379259 9.955556-6.068148 18.773333-15.644444 21.428148-0.474074 0.094815-50.441481 14.127407-99.460741 36.598518-56.035556 25.78963-89.41037 53.380741-89.410371 73.955556v93.108148c-0.094815 11.851852-9.671111 21.333333-21.428148 21.333333zM874.192593 743.727407c-11.757037 0-21.333333-9.576296-21.333334-21.333333v-93.108148c0-20.574815-33.564444-48.355556-89.884444-74.145185-49.019259-22.471111-98.607407-36.314074-99.081482-36.408889-9.576296-2.654815-16.023704-11.567407-15.644444-21.428148 0.379259-9.955556 7.585185-18.204444 17.351111-20.100741 0.379259-0.094815 10.24-1.896296 29.866667-4.551111 0.853333-0.094815 1.706667-0.18963 2.56-0.18963 54.328889-0.853333 57.078519-45.321481 57.078518-54.234074v-77.558518c0-69.878519-59.828148-77.463704-85.522963-77.463704-11.757037 0-21.333333-9.576296-21.333333-21.333333s9.576296-21.333333 21.333333-21.333334c36.788148 0 68.171852 10.42963 90.737778 30.151111 24.462222 21.428148 37.451852 52.432593 37.451852 89.884445V418.133333c0 10.05037-1.896296 36.02963-19.342222 59.638519-6.352593 8.533333-15.644444 17.92-29.108149 25.125926 10.145185 4.077037 20.764444 8.533333 31.478519 13.463703 31.383704 14.411852 56.604444 29.392593 74.998519 44.468149 26.358519 21.712593 39.727407 44.752593 39.727407 68.456296v93.108148c0 11.851852-9.576296 21.333333-21.333333 21.333333z" p-id="2583" fill="#dcdfe6"></path><path d="M512.094815 213.238519c25.220741 0 48.924444 9.860741 66.939259 27.875555s27.875556 41.718519 27.875556 66.939259v113.682963c0 25.220741-9.860741 48.924444-27.875556 66.93926s-41.718519 27.875556-66.939259 27.875555h-0.094815c-25.220741 0-48.924444-9.860741-66.939259-27.875555s-27.875556-41.718519-27.875556-66.93926V308.053333c0-25.220741 9.860741-48.924444 27.875556-66.939259s41.718519-27.875556 66.939259-27.875555h0.094815m0-42.666667h-0.094815c-75.662222 0-137.481481 61.914074-137.481481 137.481481v113.682963c0 75.662222 61.914074 137.481481 137.481481 137.481482h0.094815c75.662222 0 137.481481-61.914074 137.481481-137.481482V308.053333c0-75.567407-61.914074-137.481481-137.481481-137.481481z" p-id="2584" fill="#dcdfe6"></path><path d="M512 577.422222c91.496296 0 155.780741 21.428148 193.611852 39.442963 39.632593 18.868148 60.112593 38.115556 67.223704 46.554074v147.152593H251.164444V663.419259c7.111111-8.438519 27.591111-27.685926 67.223704-46.554074 37.831111-18.014815 102.115556-39.442963 193.611852-39.442963m0-42.666666c-203.188148 0-303.502222 97.943704-303.502222 119.656296v176.734815c0 12.136296 9.102222 22.091852 20.195555 22.091852h566.613334c11.093333 0 20.195556-9.955556 20.195555-22.091852V654.411852C815.502222 632.699259 715.188148 534.755556 512 534.755556z" p-id="2585" fill="#dcdfe6"></path></svg>